<svg version="1.1" viewBox="0.0 0.0 960.0 540.0" fill="none" stroke="none" stroke-linecap="square" stroke-miterlimit="10" xmlns:xlink="http://www.w3.org/1999/xlink" xmlns="http://www.w3.org/2000/svg"><clipPath id="g81127416a1_0_13.0"><path d="m0 0l960.0 0l0 540.0l-960.0 0l0 -540.0z" clip-rule="nonzero"/></clipPath><g clip-path="url(#g81127416a1_0_13.0)"><path fill="#ffffff" d="m0 0l960.0 0l0 540.0l-960.0 0z" fill-rule="evenodd"/><path fill="#000000" fill-opacity="0.0" d="m136.0315 56.335957l611.46454 0l0 439.68503l-611.46454 0z" fill-rule="evenodd"/><path stroke="#595959" stroke-width="1.0" stroke-linejoin="round" stroke-linecap="butt" d="m136.0315 56.335957l611.46454 0l0 439.68503l-611.46454 0z" fill-rule="evenodd"/><path fill="#b4a7d6" d="m172.9386 175.44402l0 0c0 -5.6621246 4.590042 -10.252167 10.252167 -10.252167l510.86575 0c2.7189941 0 5.326721 1.0801239 7.2493896 3.0027924c1.9226074 1.9226532 3.0027466 4.5303345 3.0027466 7.2493744l0 41.00746c0 5.6621246 -4.590027 10.252182 -10.252136 10.252182l-510.86575 0c-5.6621246 0 -10.252167 -4.5900574 -10.252167 -10.252182z" fill-rule="evenodd"/><path stroke="#595959" stroke-width="1.0" stroke-linejoin="round" stroke-linecap="butt" d="m172.9386 175.44402l0 0c0 -5.6621246 4.590042 -10.252167 10.252167 -10.252167l510.86575 0c2.7189941 0 5.326721 1.0801239 7.2493896 3.0027924c1.9226074 1.9226532 3.0027466 4.5303345 3.0027466 7.2493744l0 41.00746c0 5.6621246 -4.590027 10.252182 -10.252136 10.252182l-510.86575 0c-5.6621246 0 -10.252167 -4.5900574 -10.252167 -10.252182z" fill-rule="evenodd"/><path fill="#ffffff" d="m248.54886 199.18211l0 8.765625l-4.234375 0l0 -23.828125q4.234375 -0.171875 4.953125 -0.171875q5.640625 0 8.25 1.734375q2.625 1.734375 2.625 5.40625q0 8.203125 -9.671875 8.203125q-0.71875 0 -1.921875 -0.109375zm0 -11.390625l0 7.625q1.078125 0.109375 1.6875 0.109375q2.90625 0 4.234375 -0.96875q1.34375 -0.96875 1.34375 -3.140625q0 -3.71875 -5.984375 -3.71875q-0.65625 0 -1.28125 0.09375zm13.9513855 11.40625q0 -3.984375 2.296875 -6.484375q2.296875 -2.515625 6.078125 -2.515625q3.96875 0 6.15625 2.40625q2.203125 2.40625 2.203125 6.59375q0 4.15625 -2.234375 6.625q-2.234375 2.453125 -6.125 2.453125q-3.96875 0 -6.171875 -2.484375q-2.203125 -2.484375 -2.203125 -6.59375zm4.21875 0q0 5.75 4.15625 5.75q1.90625 0 3.015625 -1.484375q1.125 -1.5 1.125 -4.265625q0 -5.6875 -4.140625 -5.6875q-1.90625 0 -3.03125 1.5q-1.125 1.5 -1.125 4.1875zm14.704742 7.625l1.453125 -3.234375q1.8125 1.453125 4.109375 1.453125q2.375 0 2.375 -1.703125q0 -0.984375 -0.71875 -1.625q-0.71875 -0.640625 -2.78125 -1.5q-4.5 -1.859375 -4.5 -5.234375q0 -2.265625 1.71875 -3.515625q1.71875 -1.265625 4.40625 -1.265625q2.71875 0 5.109375 1.21875l-1.171875 3.15625q-1.328125 -1.140625 -3.703125 -1.140625q-2.140625 0 -2.140625 1.6875q0 0.671875 0.703125 1.21875q0.703125 0.53125 3.0 1.4375q2.296875 0.890625 3.296875 2.1875q1.015625 1.28125 1.015625 3.109375q0 2.421875 -1.796875 3.8125q-1.796875 1.390625 -4.890625 1.390625q-1.75 0 -2.796875 -0.296875q-1.046875 -0.28125 -2.6875 -1.15625zm16.04071 -13.03125l-2.015625 0l0 -3.265625l2.015625 0l0 -3.546875l4.078125 -1.5l0 5.046875l4.78125 0l0 3.265625l-4.78125 0l0 7.625q0 1.875 0.578125 2.65625q0.59375 0.765625 2.046875 0.765625q1.46875 0 2.734375 -0.796875l0 3.75q-1.40625 0.484375 -4.03125 0.484375q-2.609375 0 -4.015625 -1.46875q-1.390625 -1.484375 -1.390625 -4.203125l0 -8.8125zm11.292206 18.625l2.578125 -3.171875q2.125 1.953125 4.75 1.953125q1.75 0 2.890625 -0.515625q1.140625 -0.515625 1.140625 -1.4375q0 -1.546875 -2.515625 -1.546875q-0.6875 0 -2.046875 0.171875q-1.34375 0.15625 -2.03125 0.15625q-4.1875 0 -4.1875 -3.0q0 -0.875 0.6875 -1.703125q0.703125 -0.828125 1.640625 -1.21875q-2.984375 -1.9375 -2.984375 -5.484375q0 -2.796875 2.046875 -4.625q2.0625 -1.828125 5.046875 -1.828125q2.34375 0 3.921875 0.875l1.59375 -1.859375l2.8125 2.5625l-1.9375 1.40625q1.015625 1.53125 1.015625 3.609375q0 2.984375 -1.8125 4.765625q-1.8125 1.78125 -4.578125 1.78125q-0.4375 0 -1.171875 -0.078125l-0.671875 -0.09375q-0.109375 0 -0.875 0.34375q-0.75 0.34375 -0.75 0.71875q0 0.65625 1.125 0.65625q0.5 0 1.6875 -0.234375q1.1875 -0.25 2.03125 -0.25q5.9375 0 5.9375 4.765625q0 2.640625 -2.375 4.140625q-2.375 1.5 -5.71875 1.5q-4.0 0 -7.25 -2.359375zm4.078125 -15.78125q0 1.546875 0.84375 2.484375q0.859375 0.9375 2.3125 0.9375q1.4375 0 2.21875 -0.90625q0.78125 -0.921875 0.78125 -2.515625q0 -1.3125 -0.84375 -2.21875q-0.828125 -0.921875 -2.15625 -0.921875q-1.40625 0 -2.28125 0.890625q-0.875 0.875 -0.875 2.25zm24.026031 -2.328125q-1.078125 -0.71875 -2.390625 -0.71875q-1.40625 0 -2.515625 1.296875q-1.09375 1.28125 -1.09375 3.140625l0 9.921875l-4.0625 0l0 -17.421875l4.0625 0l0 1.59375q1.703125 -1.921875 4.546875 -1.921875q2.078125 0 3.1875 0.625l-1.734375 3.484375zm19.723694 6.171875l-12.4375 0q0.109375 2.078125 1.421875 3.234375q1.328125 1.15625 3.546875 1.15625q2.78125 0 4.234375 -1.453125l1.578125 3.109375q-2.140625 1.75 -6.40625 1.75q-3.984375 0 -6.3125 -2.328125q-2.3125 -2.34375 -2.3125 -6.53125q0 -4.109375 2.546875 -6.65625q2.546875 -2.5625 6.109375 -2.5625q3.78125 0 6.078125 2.265625q2.296875 2.25 2.296875 5.75q0 0.75 -0.34375 2.265625zm-12.296875 -3.0625l8.5625 0q-0.421875 -3.828125 -4.234375 -3.828125q-3.484375 0 -4.328125 3.828125zm14.997681 9.21875l1.5625 -3.796875q2.515625 1.75 4.9375 1.75q3.71875 0 3.71875 -2.59375q0 -1.21875 -0.875 -2.328125q-0.875 -1.109375 -3.625 -2.484375q-2.734375 -1.375 -3.6875 -2.25q-0.953125 -0.890625 -1.46875 -2.109375q-0.515625 -1.234375 -0.515625 -2.703125q0 -2.78125 2.03125 -4.59375q2.03125 -1.828125 5.203125 -1.828125q4.125 0 6.0625 1.546875l-1.28125 3.640625q-2.234375 -1.59375 -4.703125 -1.59375q-1.46875 0 -2.28125 0.78125q-0.796875 0.765625 -0.796875 2.0q0 2.0625 4.546875 4.265625q2.390625 1.171875 3.4375 2.15625q1.0625 0.984375 1.609375 2.296875q0.5625 1.3125 0.5625 2.921875q0 2.890625 -2.296875 4.765625q-2.28125 1.875 -6.109375 1.875q-3.34375 0 -6.03125 -1.71875zm40.78836 6.25q-1.078125 0.140625 -2.1875 0.140625q-3.015625 0 -5.5625 -1.234375q-2.546875 -1.21875 -3.96875 -3.4375q-0.609375 0.109375 -1.9375 0.109375q-4.703125 0 -7.40625 -3.515625q-2.6875 -3.515625 -2.6875 -9.046875q0 -5.234375 2.75 -8.71875q2.75 -3.5 7.34375 -3.5q5.15625 0 7.9375 3.234375q2.796875 3.234375 2.796875 8.984375q0 8.546875 -5.59375 11.40625q1.78125 1.953125 5.890625 1.953125q1.515625 0 2.625 -0.3125l0 3.9375zm-19.34375 -16.984375q0 3.75 1.484375 6.28125q1.5 2.515625 4.203125 2.515625q3.125 0 4.734375 -2.3125q1.609375 -2.3125 1.609375 -6.484375q0 -8.4375 -6.34375 -8.4375q-2.796875 0 -4.25 2.265625q-1.4375 2.25 -1.4375 6.171875zm20.363495 12.046875l0 -23.84375l4.234375 0l0 20.078125l10.765625 0l0 3.765625l-15.0 0zm26.530975 -24.3125l0 2.25q-3.21875 4.5 -3.21875 13.015625q0 10.125 3.21875 13.703125l0 2.75q-3.84375 -2.609375 -5.875 -6.90625q-2.015625 -4.296875 -2.015625 -9.578125q0 -4.53125 2.265625 -9.046875q2.28125 -4.515625 5.625 -6.1875zm8.362671 15.546875l0 8.765625l-4.234375 0l0 -23.828125q4.234375 -0.171875 4.953125 -0.171875q5.640625 0 8.25 1.734375q2.625 1.734375 2.625 5.40625q0 8.203125 -9.671875 8.203125q-0.71875 0 -1.921875 -0.109375zm0 -11.390625l0 7.625q1.078125 0.109375 1.6875 0.109375q2.90625 0 4.234375 -0.96875q1.34375 -0.96875 1.34375 -3.140625q0 -3.71875 -5.984375 -3.71875q-0.65625 0 -1.28125 0.09375zm32.93573 -1.75l-1.765625 3.40625q-0.75 -0.671875 -2.3125 -1.328125q-1.5625 -0.65625 -2.6875 -0.65625q-3.515625 0 -5.546875 2.390625q-2.03125 2.375 -2.03125 6.375q0 3.8125 1.984375 6.09375q2.0 2.265625 5.421875 2.265625q2.265625 0 3.734375 -1.234375l0 -4.6875l-3.296875 0l0 -3.609375l7.53125 0l0 10.671875q-1.515625 1.25 -3.90625 1.9375q-2.375 0.6875 -4.734375 0.6875q-5.125 0 -8.140625 -3.359375q-3.0 -3.359375 -3.0 -8.875q0 -5.515625 3.265625 -8.96875q3.28125 -3.453125 8.8125 -3.453125q3.921875 0 6.671875 2.34375zm4.985443 29.3125l0 -2.75q3.21875 -3.578125 3.21875 -13.703125q0 -8.515625 -3.21875 -13.015625l0 -2.25q3.328125 1.671875 5.609375 6.1875q2.28125 4.515625 2.28125 9.046875q0 5.28125 -2.03125 9.578125q-2.015625 4.296875 -5.859375 6.90625zm22.137787 -7.40625l0 -23.84375l4.234375 0l0 23.84375l-4.234375 0zm20.166565 0l0 -10.078125q0 -2.21875 -0.859375 -3.25q-0.84375 -1.03125 -2.78125 -1.03125q-0.8906555 0 -1.9219055 0.515625q-1.015625 0.5 -1.578125 1.25l0 12.59375l-4.0625 0l0 -17.421875l2.921875 0l0.75 1.625q1.65625 -1.953125 4.8906555 -1.953125q3.109375 0 4.90625 1.859375q1.8125 1.859375 1.8125 5.203125l0 10.6875l-4.078125 0zm9.080933 -14.15625l-2.015625 0l0 -3.265625l2.015625 0l0 -3.546875l4.078125 -1.5l0 5.046875l4.78125 0l0 3.265625l-4.78125 0l0 7.625q0 1.875 0.578125 2.65625q0.59375 0.765625 2.046875 0.765625q1.46875 0 2.734375 -0.796875l0 3.75q-1.40625 0.484375 -4.03125 0.484375q-2.609375 0 -4.015625 -1.46875q-1.390625 -1.484375 -1.390625 -4.203125l0 -8.8125zm28.15155 6.6875l-12.4375 0q0.109375 2.078125 1.421875 3.234375q1.328125 1.15625 3.546875 1.15625q2.78125 0 4.234375 -1.453125l1.578125 3.109375q-2.140625 1.75 -6.40625 1.75q-3.984375 0 -6.3125 -2.328125q-2.3125 -2.34375 -2.3125 -6.53125q0 -4.109375 2.546875 -6.65625q2.546875 -2.5625 6.109375 -2.5625q3.78125 0 6.078125 2.265625q2.296875 2.25 2.296875 5.75q0 0.75 -0.34375 2.265625zm-12.296875 -3.0625l8.5625 0q-0.421875 -3.828125 -4.234375 -3.828125q-3.484375 0 -4.328125 3.828125zm25.96643 -3.109375q-1.078125 -0.71875 -2.390625 -0.71875q-1.40625 0 -2.515625 1.296875q-1.09375 1.28125 -1.09375 3.140625l0 9.921875l-4.0625 0l0 -17.421875l4.0625 0l0 1.59375q1.703125 -1.921875 4.546875 -1.921875q2.078125 0 3.1875 0.625l-1.734375 3.484375zm13.879944 -7.203125q-1.328125 -0.4375 -2.046875 -0.4375q-1.15625 0 -1.96875 1.0q-0.796875 0.984375 -0.796875 2.421875q0 0.21875 0.015625 0.4375l3.609375 0l0 3.34375l-3.546875 0l0 14.078125l-4.0625 0l0 -14.078125l-2.546875 0l0 -3.34375l2.5625 0q0.125 -3.21875 1.890625 -5.1875q1.765625 -1.96875 4.5625 -1.96875q1.453125 0 3.53125 0.640625l-1.203125 3.09375zm12.303406 19.109375q-0.546875 0.90625 -1.921875 1.484375q-1.375 0.578125 -2.875 0.578125q-2.8125 0 -4.421875 -1.40625q-1.609375 -1.40625 -1.609375 -4.0q0 -3.03125 2.265625 -4.734375q2.265625 -1.703125 6.453125 -1.703125q0.71875 0 1.6875 0.234375q0 -3.078125 -3.890625 -3.078125q-2.296875 0 -3.828125 0.765625l-0.890625 -3.15625q2.109375 -1.0 5.0 -1.0q3.984375 0 5.84375 1.8125q1.859375 1.8125 1.859375 6.875l0 3.71875q0 3.484375 1.390625 4.390625q-0.5 0.875 -1.125 1.078125q-0.609375 0.203125 -1.40625 0.203125q-0.875 0 -1.578125 -0.640625q-0.703125 -0.65625 -0.953125 -1.421875zm-0.390625 -6.46875q-1.03125 -0.203125 -1.5625 -0.203125q-4.8125 0 -4.8125 3.15625q0 2.34375 2.71875 2.34375q3.65625 0 3.65625 -3.671875l0 -1.625zm22.11377 -7.84375l-1.734375 3.046875q-1.4375 -1.359375 -3.84375 -1.359375q-2.3125 0 -3.65625 1.546875q-1.34375 1.53125 -1.34375 4.25q0 5.484375 5.234375 5.484375q2.265625 0 3.984375 -1.5l1.5 3.21875q-1.78125 1.09375 -3.109375 1.390625q-1.3125 0.296875 -3.125 0.296875q-4.03125 0 -6.375 -2.34375q-2.328125 -2.359375 -2.328125 -6.546875q0 -4.109375 2.546875 -6.640625q2.5625 -2.546875 6.96875 -2.546875q3.046875 0 5.28125 1.703125zm18.945251 8.578125l-12.4375 0q0.109375 2.078125 1.421875 3.234375q1.328125 1.15625 3.546875 1.15625q2.78125 0 4.234375 -1.453125l1.578125 3.109375q-2.140625 1.75 -6.40625 1.75q-3.984375 0 -6.3125 -2.328125q-2.3125 -2.34375 -2.3125 -6.53125q0 -4.109375 2.546875 -6.65625q2.546875 -2.5625 6.109375 -2.5625q3.78125 0 6.078125 2.265625q2.296875 2.25 2.296875 5.75q0 0.75 -0.34375 2.265625zm-12.296875 -3.0625l8.5625 0q-0.421875 -3.828125 -4.234375 -3.828125q-3.484375 0 -4.328125 3.828125z" fill-rule="nonzero"/><path fill="#ffc500" d="m172.9386 258.1132l0 0c0 -5.6621246 4.590042 -10.252167 10.252167 -10.252167l510.86575 0c2.7189941 0 5.326721 1.0801239 7.2493896 3.0027924c1.9226074 1.9226532 3.0027466 4.5303345 3.0027466 7.2493744l0 41.007477c0 5.6621094 -4.590027 10.252167 -10.252136 10.252167l-510.86575 0c-5.6621246 0 -10.252167 -4.5900574 -10.252167 -10.252167z" fill-rule="evenodd"/><path stroke="#595959" stroke-width="1.0" stroke-linejoin="round" stroke-linecap="butt" d="m172.9386 258.1132l0 0c0 -5.6621246 4.590042 -10.252167 10.252167 -10.252167l510.86575 0c2.7189941 0 5.326721 1.0801239 7.2493896 3.0027924c1.9226074 1.9226532 3.0027466 4.5303345 3.0027466 7.2493744l0 41.007477c0 5.6621094 -4.590027 10.252167 -10.252136 10.252167l-510.86575 0c-5.6621246 0 -10.252167 -4.5900574 -10.252167 -10.252167z" fill-rule="evenodd"/><path fill="#ffffff" d="m297.50104 290.63254l-4.109375 0l-2.46875 -12.859375l-4.796875 13.171875l-1.515625 0l-4.796875 -13.171875l-2.578125 12.859375l-4.078125 0l4.796875 -23.859375l2.25 0l5.15625 16.0625l5.046875 -16.0625l2.234375 0l4.859375 23.859375zm12.052124 -1.75q-0.546875 0.90625 -1.921875 1.484375q-1.375 0.578125 -2.875 0.578125q-2.8125 0 -4.421875 -1.40625q-1.609375 -1.40625 -1.609375 -4.0q0 -3.03125 2.265625 -4.734375q2.265625 -1.703125 6.453125 -1.703125q0.71875 0 1.6875 0.234375q0 -3.078125 -3.890625 -3.078125q-2.296875 0 -3.828125 0.765625l-0.890625 -3.15625q2.109375 -1.0 5.0 -1.0q3.984375 0 5.84375 1.8125q1.859375 1.8125 1.859375 6.875l0 3.71875q0 3.484375 1.390625 4.390625q-0.5 0.875 -1.125 1.078125q-0.609375 0.203125 -1.40625 0.203125q-0.875 0 -1.578125 -0.640625q-0.703125 -0.65625 -0.953125 -1.421875zm-0.390625 -6.46875q-1.03125 -0.203125 -1.5625 -0.203125q-4.8125 0 -4.8125 3.15625q0 2.34375 2.71875 2.34375q3.65625 0 3.65625 -3.671875l0 -1.625zm22.11377 -7.84375l-1.734375 3.046875q-1.4375 -1.359375 -3.84375 -1.359375q-2.3125 0 -3.65625 1.546875q-1.34375 1.53125 -1.34375 4.25q0 5.484375 5.234375 5.484375q2.265625 0 3.984375 -1.5l1.5 3.21875q-1.78125 1.09375 -3.109375 1.390625q-1.3125 0.296875 -3.125 0.296875q-4.03125 0 -6.375 -2.34375q-2.328125 -2.359375 -2.328125 -6.546875q0 -4.109375 2.546875 -6.640625q2.5625 -2.546875 6.96875 -2.546875q3.046875 0 5.28125 1.703125zm14.664001 16.046875l0 -10.734375q0 -1.625 -1.015625 -2.59375q-1.0 -0.96875 -2.625 -0.96875q-1.015625 0 -2.046875 0.546875q-1.015625 0.53125 -1.453125 1.234375l0 12.515625l-4.125 0l0 -23.921875l4.125 -0.984375l0 8.578125q1.578125 -1.421875 4.34375 -1.421875q3.28125 0 5.078125 1.8125q1.8125 1.8125 1.8125 5.203125l0 10.734375l-4.09375 0zm11.677887 -24.1875q0.96875 0 1.65625 0.703125q0.703125 0.6875 0.703125 1.65625q0 0.984375 -0.703125 1.671875q-0.6875 0.6875 -1.65625 0.6875q-0.984375 0 -1.671875 -0.6875q-0.6875 -0.6875 -0.6875 -1.671875q0 -0.96875 0.6875 -1.65625q0.6875 -0.703125 1.671875 -0.703125zm-2.109375 24.1875l0 -14.09375l-2.21875 0l0 -3.328125l6.34375 0l0 17.421875l-4.125 0zm20.068115 0l0 -10.078125q0 -2.21875 -0.859375 -3.25q-0.84375 -1.03125 -2.78125 -1.03125q-0.890625 0 -1.921875 0.515625q-1.015625 0.5 -1.578125 1.25l0 12.59375l-4.0625 0l0 -17.421875l2.921875 0l0.75 1.625q1.65625 -1.953125 4.890625 -1.953125q3.109375 0 4.90625 1.859375q1.8125 1.859375 1.8125 5.203125l0 10.6875l-4.078125 0zm24.018433 -7.46875l-12.4375 0q0.109375 2.078125 1.421875 3.234375q1.328125 1.15625 3.546875 1.15625q2.78125 0 4.234375 -1.453125l1.578125 3.109375q-2.140625 1.75 -6.40625 1.75q-3.984375 0 -6.3125 -2.328125q-2.3125 -2.34375 -2.3125 -6.53125q0 -4.109375 2.546875 -6.65625q2.546875 -2.5625 6.109375 -2.5625q3.78125 0 6.078125 2.265625q2.296875 2.25 2.296875 5.75q0 0.75 -0.34375 2.265625zm-12.296875 -3.0625l8.5625 0q-0.421875 -3.828125 -4.234375 -3.828125q-3.484375 0 -4.328125 3.828125zm26.179047 10.53125l0 -23.84375l4.234375 0l0 20.078125l10.765625 0l0 3.765625l-15.0 0zm33.73407 -7.46875l-12.4375 0q0.109375 2.078125 1.421875 3.234375q1.328125 1.15625 3.546875 1.15625q2.78125 0 4.234375 -1.453125l1.578125 3.109375q-2.140625 1.75 -6.40625 1.75q-3.984375 0 -6.3125 -2.328125q-2.3124695 -2.34375 -2.3124695 -6.53125q0 -4.109375 2.5468445 -6.65625q2.546875 -2.5625 6.109375 -2.5625q3.78125 0 6.078125 2.265625q2.296875 2.25 2.296875 5.75q0 0.75 -0.34375 2.265625zm-12.296875 -3.0625l8.5625 0q-0.421875 -3.828125 -4.234375 -3.828125q-3.484375 0 -4.328125 3.828125zm25.59143 8.796875q-0.546875 0.90625 -1.921875 1.484375q-1.375 0.578125 -2.875 0.578125q-2.8125 0 -4.421875 -1.40625q-1.609375 -1.40625 -1.609375 -4.0q0 -3.03125 2.265625 -4.734375q2.265625 -1.703125 6.453125 -1.703125q0.71875 0 1.6875 0.234375q0 -3.078125 -3.890625 -3.078125q-2.296875 0 -3.828125 0.765625l-0.890625 -3.15625q2.109375 -1.0 5.0 -1.0q3.984375 0 5.84375 1.8125q1.859375 1.8125 1.859375 6.875l0 3.71875q0 3.484375 1.390625 4.390625q-0.5 0.875 -1.125 1.078125q-0.609375 0.203125 -1.40625 0.203125q-0.875 0 -1.578125 -0.640625q-0.703125 -0.65625 -0.953125 -1.421875zm-0.390625 -6.46875q-1.03125 -0.203125 -1.5625 -0.203125q-4.8125 0 -4.8125 3.15625q0 2.34375 2.71875 2.34375q3.65625 0 3.65625 -3.671875l0 -1.625zm18.52002 -5.4375q-1.078125 -0.71875 -2.390625 -0.71875q-1.40625 0 -2.515625 1.296875q-1.09375 1.28125 -1.09375 3.140625l0 9.921875l-4.0625 0l0 -17.421875l4.0625 0l0 1.59375q1.703125 -1.921875 4.546875 -1.921875q2.078125 0 3.1875 0.625l-1.734375 3.484375zm15.379944 13.640625l0 -10.078125q0 -2.21875 -0.859375 -3.25q-0.84375 -1.03125 -2.78125 -1.03125q-0.890625 0 -1.921875 0.515625q-1.015625 0.5 -1.578125 1.25l0 12.59375l-4.0625 0l0 -17.421875l2.921875 0l0.75 1.625q1.65625 -1.953125 4.890625 -1.953125q3.109375 0 4.90625 1.859375q1.8125 1.859375 1.8125 5.203125l0 10.6875l-4.078125 0zm11.659058 -24.1875q0.96875 0 1.65625 0.703125q0.703125 0.6875 0.703125 1.65625q0 0.984375 -0.703125 1.671875q-0.6875 0.6875 -1.65625 0.6875q-0.984375 0 -1.671875 -0.6875q-0.6875 -0.6875 -0.6875 -1.671875q0 -0.96875 0.6875 -1.65625q0.6875 -0.703125 1.671875 -0.703125zm-2.109375 24.1875l0 -14.09375l-2.21875 0l0 -3.328125l6.34375 0l0 17.421875l-4.125 0zm20.068115 0l0 -10.078125q0 -2.21875 -0.859375 -3.25q-0.84375 -1.03125 -2.78125 -1.03125q-0.890625 0 -1.921875 0.515625q-1.015625 0.5 -1.578125 1.25l0 12.59375l-4.0625 0l0 -17.421875l2.921875 0l0.75 1.625q1.65625 -1.953125 4.890625 -1.953125q3.109375 0 4.90625 1.859375q1.8125 1.859375 1.8125 5.203125l0 10.6875l-4.078125 0zm7.1590576 4.46875l2.578125 -3.171875q2.125 1.953125 4.75 1.953125q1.75 0 2.890625 -0.515625q1.140625 -0.515625 1.140625 -1.4375q0 -1.546875 -2.515625 -1.546875q-0.6875 0 -2.046875 0.171875q-1.34375 0.15625 -2.03125 0.15625q-4.1875 0 -4.1875 -3.0q0 -0.875 0.6875 -1.703125q0.703125 -0.828125 1.640625 -1.21875q-2.984375 -1.9375 -2.984375 -5.484375q0 -2.796875 2.046875 -4.625q2.0625 -1.828125 5.046875 -1.828125q2.34375 0 3.921875 0.875l1.59375 -1.859375l2.8125 2.5625l-1.9375 1.40625q1.015625 1.53125 1.015625 3.609375q0 2.984375 -1.8125 4.765625q-1.8125 1.78125 -4.578125 1.78125q-0.4375 0 -1.171875 -0.078125l-0.671875 -0.09375q-0.109375 0 -0.875 0.34375q-0.75 0.34375 -0.75 0.71875q0 0.65625 1.125 0.65625q0.5 0 1.6875 -0.234375q1.1875 -0.25 2.03125 -0.25q5.9375 0 5.9375 4.765625q0 2.640625 -2.375 4.140625q-2.375 1.5 -5.71875 1.5q-4.0 0 -7.25 -2.359375zm4.078125 -15.78125q0 1.546875 0.84375 2.484375q0.859375 0.9375 2.3125 0.9375q1.4375 0 2.21875 -0.90625q0.78125 -0.921875 0.78125 -2.515625q0 -1.3125 -0.84375 -2.21875q-0.828125 -0.921875 -2.15625 -0.921875q-1.40625 0 -2.28125 0.890625q-0.875 0.875 -0.875 2.25zm24.238647 11.3125l0 -23.84375l4.234375 0l0 20.078125l10.765625 0l0 3.765625l-15.0 0zm21.374756 -24.1875q0.96875 0 1.65625 0.703125q0.703125 0.6875 0.703125 1.65625q0 0.984375 -0.703125 1.671875q-0.6875 0.6875 -1.65625 0.6875q-0.984375 0 -1.671875 -0.6875q-0.6875 -0.6875 -0.6875 -1.671875q0 -0.96875 0.6875 -1.65625q0.6875 -0.703125 1.671875 -0.703125zm-2.109375 24.1875l0 -14.09375l-2.21875 0l0 -3.328125l6.34375 0l0 17.421875l-4.125 0zm11.73999 -0.953125l-0.90625 1.28125l-2.296875 0l0 -24.25l4.0625 -0.984375l0 8.140625q1.625 -0.984375 3.546875 -0.984375q3.828125 0 6.171875 2.421875q2.34375 2.40625 2.34375 6.1875q0 4.375 -2.359375 6.921875q-2.359375 2.546875 -6.390625 2.546875q-2.4375 0 -4.171875 -1.28125zm0.859375 -12.328125l0 9.09375q0.890625 1.0625 2.421875 1.0625q2.953125 0 4.171875 -1.390625q1.234375 -1.40625 1.234375 -4.484375q0 -5.296875 -5.078125 -5.296875q-1.796875 0 -2.75 1.015625z" fill-rule="nonzero"/><path fill="#b6d7a8" d="m172.9386 340.78238l0 0c0 -5.66214 4.590042 -10.252197 10.252167 -10.252197l510.86575 0c2.7189941 0 5.326721 1.0801392 7.2493896 3.0028076c1.9226074 1.9226379 3.0027466 4.5303345 3.0027466 7.2493896l0 41.007446c0 5.6621094 -4.590027 10.252167 -10.252136 10.252167l-510.86575 0c-5.6621246 0 -10.252167 -4.5900574 -10.252167 -10.252167z" fill-rule="evenodd"/><path stroke="#595959" stroke-width="1.0" stroke-linejoin="round" stroke-linecap="butt" d="m172.9386 340.78238l0 0c0 -5.66214 4.590042 -10.252197 10.252167 -10.252197l510.86575 0c2.7189941 0 5.326721 1.0801392 7.2493896 3.0028076c1.9226074 1.9226379 3.0027466 4.5303345 3.0027466 7.2493896l0 41.007446c0 5.6621094 -4.590027 10.252167 -10.252136 10.252167l-510.86575 0c-5.6621246 0 -10.252167 -4.5900574 -10.252167 -10.252167z" fill-rule="evenodd"/><path fill="#434343" d="m306.71036 364.52048l0 8.765625l-4.234375 0l0 -23.828125q4.234375 -0.171875 4.953125 -0.171875q5.640625 0 8.25 1.734375q2.625 1.734375 2.625 5.40625q0 8.203125 -9.671875 8.203125q-0.71875 0 -1.921875 -0.109375zm0 -11.390625l0 7.625q1.078125 0.109375 1.6875 0.109375q2.90625 0 4.234375 -0.96875q1.34375 -0.96875 1.34375 -3.140625q0 -3.71875 -5.984375 -3.71875q-0.65625 0 -1.28125 0.09375zm24.77951 18.421875q-0.546875 0.90625 -1.921875 1.484375q-1.375 0.578125 -2.875 0.578125q-2.8125 0 -4.421875 -1.40625q-1.609375 -1.40625 -1.609375 -4.0q0 -3.03125 2.265625 -4.734375q2.265625 -1.703125 6.453125 -1.703125q0.71875 0 1.6875 0.234375q0 -3.078125 -3.890625 -3.078125q-2.296875 0 -3.828125 0.765625l-0.890625 -3.15625q2.109375 -1.0 5.0 -1.0q3.984375 0 5.84375 1.8125q1.859375 1.8125 1.859375 6.875l0 3.71875q0 3.484375 1.390625 4.390625q-0.5 0.875 -1.125 1.078125q-0.609375 0.203125 -1.40625 0.203125q-0.875 0 -1.578125 -0.640625q-0.703125 -0.65625 -0.953125 -1.421875zm-0.390625 -6.46875q-1.03125 -0.203125 -1.5625 -0.203125q-4.8125 0 -4.8125 3.15625q0 2.34375 2.71875 2.34375q3.65625 0 3.65625 -3.671875l0 -1.625zm18.52002 -5.4375q-1.078125 -0.71875 -2.390625 -0.71875q-1.40625 0 -2.515625 1.296875q-1.09375 1.28125 -1.09375 3.140625l0 9.921875l-4.0625 0l0 -17.421875l4.0625 0l0 1.59375q1.703125 -1.921875 4.546875 -1.921875q2.078125 0 3.1875 0.625l-1.734375 3.484375zm3.0986938 12.515625l1.453125 -3.234375q1.8125 1.453125 4.109375 1.453125q2.375 0 2.375 -1.703125q0 -0.984375 -0.71875 -1.625q-0.71875 -0.640625 -2.78125 -1.5q-4.5 -1.859375 -4.5 -5.234375q0 -2.265625 1.71875 -3.515625q1.71875 -1.265625 4.40625 -1.265625q2.71875 0 5.109375 1.21875l-1.171875 3.15625q-1.328125 -1.140625 -3.703125 -1.140625q-2.140625 0 -2.140625 1.6875q0 0.671875 0.703125 1.21875q0.703125 0.53125 3.0 1.4375q2.296875 0.890625 3.296875 2.1875q1.015625 1.28125 1.015625 3.109375q0 2.421875 -1.796875 3.8125q-1.796875 1.390625 -4.890625 1.390625q-1.75 0 -2.796875 -0.296875q-1.046875 -0.28125 -2.6875 -1.15625zm30.97821 -6.34375l-12.4375 0q0.109375 2.078125 1.421875 3.234375q1.328125 1.15625 3.546875 1.15625q2.78125 0 4.234375 -1.453125l1.578125 3.109375q-2.140625 1.75 -6.40625 1.75q-3.984375 0 -6.3125 -2.328125q-2.3125 -2.34375 -2.3125 -6.53125q0 -4.109375 2.546875 -6.65625q2.546875 -2.5625 6.109375 -2.5625q3.78125 0 6.078125 2.265625q2.296875 2.25 2.296875 5.75q0 0.75 -0.34375 2.265625zm-12.296875 -3.0625l8.5625 0q-0.421875 -3.828125 -4.234375 -3.828125q-3.484375 0 -4.328125 3.828125zm25.96643 -3.109375q-1.078125 -0.71875 -2.390625 -0.71875q-1.40625 0 -2.515625 1.296875q-1.09375 1.28125 -1.09375 3.140625l0 9.921875l-4.0625 0l0 -17.421875l4.0625 0l0 1.59375q1.703125 -1.921875 4.546875 -1.921875q2.078125 0 3.1875 0.625l-1.734375 3.484375zm5.504944 19.734375l-1.390625 -1.78125q2.984375 -2.234375 2.984375 -3.5q0 -0.484375 -0.34375 -0.953125q-1.546875 -0.75 -1.546875 -2.109375q0 -0.96875 0.8125 -1.609375q0.8125 -0.640625 2.015625 -0.640625q1.125 0 1.96875 0.859375q0.84375 0.84375 0.84375 1.96875q0 2.0625 -0.96875 3.765625q-0.96875 1.703125 -4.375 4.0zm20.044037 -18.21875q0 -5.09375 2.796875 -8.609375q2.796875 -3.53125 7.453125 -3.53125q5.15625 0 7.859375 3.1875q2.71875 3.1875 2.71875 8.953125q0 5.765625 -2.84375 9.15625q-2.828125 3.375 -8.046875 3.375q-4.8125 0 -7.375 -3.34375q-2.5625 -3.359375 -2.5625 -9.1875zm4.40625 0q0 4.1875 1.40625 6.484375q1.421875 2.28125 4.125 2.28125q3.171875 0 4.828125 -2.234375q1.671875 -2.25 1.671875 -6.53125q0 -8.375 -6.1875 -8.375q-2.828125 0 -4.34375 2.265625q-1.5 2.265625 -1.5 6.109375zm23.668213 11.6875l0 7.265625l-4.0625 0l0 -24.25l4.0625 0l0 1.171875q1.53125 -1.5 3.765625 -1.5q8.328125 0 8.328125 9.171875q0 4.28125 -2.3125 6.59375q-2.296875 2.3125 -6.28125 2.3125q-1.921875 0 -3.5 -0.765625zm0 -12.734375l0 9.171875q1.109375 0.890625 2.59375 0.890625q2.8125 0 4.03125 -1.34375q1.234375 -1.34375 1.234375 -4.234375q0 -3.09375 -1.21875 -4.34375q-1.21875 -1.265625 -4.03125 -1.265625q-1.46875 0 -2.609375 1.125zm16.289276 -0.984375l-2.015625 0l0 -3.265625l2.015625 0l0 -3.546875l4.078125 -1.5l0 5.046875l4.78125 0l0 3.265625l-4.78125 0l0 7.625q0 1.875 0.578125 2.65625q0.59375 0.765625 2.046875 0.765625q1.46875 0 2.734375 -0.796875l0 3.75q-1.40625 0.484375 -4.03125 0.484375q-2.609375 0 -4.015625 -1.46875q-1.390625 -1.484375 -1.390625 -4.203125l0 -8.8125zm15.792236 -10.03125q0.96875 0 1.65625 0.703125q0.703125 0.6875 0.703125 1.65625q0 0.984375 -0.703125 1.671875q-0.6875 0.6875 -1.65625 0.6875q-0.984375 0 -1.671875 -0.6875q-0.6875 -0.6875 -0.6875 -1.671875q0 -0.96875 0.6875 -1.65625q0.6875 -0.703125 1.671875 -0.703125zm-2.109375 24.1875l0 -14.09375l-2.21875 0l0 -3.328125l6.34375 0l0 17.421875l-4.125 0zm29.036865 0l0 -10.921875q0 -3.4375 -3.078125 -3.4375q-0.90625 0 -1.75 0.546875q-0.84375 0.53125 -1.1875 1.234375l0 12.578125l-4.078125 0l0 -11.546875q0 -1.296875 -0.796875 -2.046875q-0.796875 -0.765625 -2.234375 -0.765625q-0.765625 0 -1.671875 0.578125q-0.90625 0.5625 -1.3125 1.25l0 12.53125l-4.0625 0l0 -17.421875l2.796875 0l0.828125 1.515625q1.6875 -1.84375 4.375 -1.84375q3.46875 0 5.21875 1.890625q0.765625 -0.875 2.125 -1.375q1.375 -0.515625 2.75 -0.515625q2.90625 0 4.515625 1.671875q1.625 1.65625 1.625 4.578125l0 11.5l-4.0625 0zm11.656982 -24.1875q0.96875 0 1.65625 0.703125q0.703125 0.6875 0.703125 1.65625q0 0.984375 -0.703125 1.671875q-0.6875 0.6875 -1.65625 0.6875q-0.984375 0 -1.671875 -0.6875q-0.6875 -0.6875 -0.6875 -1.671875q0 -0.96875 0.6875 -1.65625q0.6875 -0.703125 1.671875 -0.703125zm-2.109375 24.1875l0 -14.09375l-2.21875 0l0 -3.328125l6.34375 0l0 17.421875l-4.125 0zm7.724365 0l0 -1.390625l9.453125 -12.484375l-9.296875 0l0 -3.546875l15.234375 0l0 1.421875l-9.109375 12.453125l9.203125 0l0 3.546875l-15.484375 0zm34.29541 -7.46875l-12.4375 0q0.109375 2.078125 1.421875 3.234375q1.328125 1.15625 3.546875 1.15625q2.78125 0 4.234375 -1.453125l1.578125 3.109375q-2.140625 1.75 -6.40625 1.75q-3.984375 0 -6.3125 -2.328125q-2.3125 -2.34375 -2.3125 -6.53125q0 -4.109375 2.546875 -6.65625q2.546875 -2.5625 6.109375 -2.5625q3.78125 0 6.078125 2.265625q2.296875 2.25 2.296875 5.75q0 0.75 -0.34375 2.265625zm-12.296875 -3.0625l8.5625 0q-0.421875 -3.828125 -4.234375 -3.828125q-3.484375 0 -4.328125 3.828125zm25.96643 -3.109375q-1.078125 -0.71875 -2.390625 -0.71875q-1.40625 0 -2.515625 1.296875q-1.09375 1.28125 -1.09375 3.140625l0 9.921875l-4.0625 0l0 -17.421875l4.0625 0l0 1.59375q1.703125 -1.921875 4.546875 -1.921875q2.078125 0 3.1875 0.625l-1.734375 3.484375z" fill-rule="nonzero"/><path fill="#ffc500" d="m172.9386 423.45154l0 0c0 -5.6621094 4.590042 -10.252167 10.252167 -10.252167l283.46417 0c2.7190247 0 5.326721 1.0801392 7.249359 3.002777c1.9226685 1.9226685 3.0028076 4.5303345 3.0028076 7.2493896l0 41.007477c0 5.6621094 -4.5900574 10.252167 -10.252167 10.252167l-283.46417 0l0 0c-5.6621246 0 -10.252167 -4.5900574 -10.252167 -10.252167z" fill-rule="evenodd"/><path stroke="#595959" stroke-width="1.0" stroke-linejoin="round" stroke-linecap="butt" d="m172.9386 423.45154l0 0c0 -5.6621094 4.590042 -10.252167 10.252167 -10.252167l283.46417 0c2.7190247 0 5.326721 1.0801392 7.249359 3.002777c1.9226685 1.9226685 3.0028076 4.5303345 3.0028076 7.2493896l0 41.007477c0 5.6621094 -4.5900574 10.252167 -10.252167 10.252167l-283.46417 0l0 0c-5.6621246 0 -10.252167 -4.5900574 -10.252167 -10.252167z" fill-rule="evenodd"/><path fill="#ffffff" d="m217.43811 456.2834l-2.328125 0l-8.921875 -24.171875l4.65625 0l5.515625 16.109375l5.828125 -16.109375l4.5625 0l-9.3125 24.171875zm14.778671 -24.515625q0.96875 0 1.65625 0.703125q0.703125 0.6875 0.703125 1.65625q0 0.984375 -0.703125 1.671875q-0.6875 0.6875 -1.65625 0.6875q-0.984375 0 -1.671875 -0.6875q-0.6875 -0.6875 -0.6875 -1.671875q0 -0.96875 0.6875 -1.65625q0.6875 -0.703125 1.671875 -0.703125zm-2.109375 24.1875l0 -14.09375l-2.21875 0l0 -3.328125l6.34375 0l0 17.421875l-4.125 0zm20.068115 0l0 -1.0625q-0.5 0.5625 -1.703125 0.984375q-1.203125 0.40625 -2.5 0.40625q-3.640625 0 -5.734375 -2.3125q-2.078125 -2.3125 -2.078125 -6.4375q0 -4.140625 2.390625 -6.734375q2.40625 -2.59375 6.015625 -2.59375q1.984375 0 3.609375 0.8125l0 -6.984375l4.078125 -0.984375l0 24.90625l-4.078125 0zm0 -13.265625q-1.296875 -1.03125 -2.71875 -1.03125q-2.4375 0 -3.765625 1.484375q-1.3125 1.484375 -1.3125 4.265625q0 5.4375 5.25 5.4375q0.578125 0 1.4375 -0.34375q0.859375 -0.359375 1.109375 -0.71875l0 -9.09375zm17.833572 11.53125q-0.546875 0.90625 -1.921875 1.484375q-1.375 0.578125 -2.875 0.578125q-2.8125 0 -4.421875 -1.40625q-1.609375 -1.40625 -1.609375 -4.0q0 -3.03125 2.265625 -4.734375q2.265625 -1.703125 6.453125 -1.703125q0.71875 0 1.6875 0.234375q0 -3.078125 -3.890625 -3.078125q-2.296875 0 -3.828125 0.765625l-0.890625 -3.15625q2.109375 -1.0 5.0 -1.0q3.984375 0 5.84375 1.8125q1.859375 1.8125 1.859375 6.875l0 3.71875q0 3.484375 1.390625 4.390625q-0.5 0.875 -1.125 1.078125q-0.609375 0.203125 -1.40625 0.203125q-0.875 0 -1.578125 -0.640625q-0.703125 -0.65625 -0.953125 -1.421875zm-0.390625 -6.46875q-1.03125 -0.203125 -1.5625 -0.203125q-4.8125 0 -4.8125 3.15625q0 2.34375 2.71875 2.34375q3.65625 0 3.65625 -3.671875l0 -1.625zm18.52002 -5.4375q-1.078125 -0.71875 -2.390625 -0.71875q-1.40625 0 -2.515625 1.296875q-1.09375 1.28125 -1.09375 3.140625l0 9.921875l-4.0625 0l0 -17.421875l4.0625 0l0 1.59375q1.703125 -1.921875 4.546875 -1.921875q2.078125 0 3.1875 0.625l-1.734375 3.484375zm9.708069 13.640625l-5.296875 0l0 -23.828125q5.0625 -0.171875 6.359375 -0.171875q5.21875 0 8.265625 3.046875q3.046875 3.046875 3.046875 8.09375q0 12.859375 -12.375 12.859375zm-1.0625 -20.125l0 16.265625q1.03125 0.09375 2.21875 0.09375q3.203125 0 5.015625 -2.3125q1.8125 -2.328125 1.8125 -6.515625q0 -7.65625 -7.109375 -7.65625q-0.6875 0 -1.9375 0.125zm24.478424 20.125l-7.296875 0l0 -23.828125q4.828125 -0.21875 6.75 -0.21875q3.71875 0 5.8125 1.59375q2.09375 1.578125 2.09375 4.515625q0 2.828125 -3.0 4.484375q4.4375 1.546875 4.4375 6.375q0 3.25 -2.453125 5.171875q-2.453125 1.90625 -6.34375 1.90625zm-3.0625 -20.4375l0 5.703125q0.984375 0.078125 2.046875 0.078125q4.140625 0 4.140625 -3.109375q0 -2.75 -3.765625 -2.75q-0.984375 0 -2.421875 0.078125zm0 9.015625l0 7.875q1.28125 0.109375 2.078125 0.109375q2.84375 0 4.109375 -0.953125q1.28125 -0.96875 1.28125 -3.1875q0 -2.046875 -1.1875 -2.96875q-1.1875 -0.921875 -4.15625 -0.921875q-0.609375 0 -2.125 0.046875zm40.95627 3.953125l-12.4375 0q0.109375 2.078125 1.421875 3.234375q1.328125 1.15625 3.546875 1.15625q2.78125 0 4.234375 -1.453125l1.578125 3.109375q-2.140625 1.75 -6.40625 1.75q-3.984375 0 -6.3125 -2.328125q-2.3125 -2.34375 -2.3125 -6.53125q0 -4.109375 2.546875 -6.65625q2.546875 -2.5625 6.109375 -2.5625q3.78125 0 6.078125 2.265625q2.296875 2.25 2.296875 5.75q0 0.75 -0.34375 2.265625zm-12.296875 -3.0625l8.5625 0q-0.421875 -3.828125 -4.234375 -3.828125q-3.484375 0 -4.328125 3.828125zm27.107056 10.53125l0 -10.078125q0 -2.21875 -0.859375 -3.25q-0.84375 -1.03125 -2.78125 -1.03125q-0.890625 0 -1.921875 0.515625q-1.015625 0.5 -1.578125 1.25l0 12.59375l-4.0625 0l0 -17.421875l2.921875 0l0.75 1.625q1.65625 -1.953125 4.890625 -1.953125q3.109375 0 4.90625 1.859375q1.8125 1.859375 1.8125 5.203125l0 10.6875l-4.078125 0zm7.159027 4.46875l2.578125 -3.171875q2.125 1.953125 4.75 1.953125q1.75 0 2.890625 -0.515625q1.140625 -0.515625 1.140625 -1.4375q0 -1.546875 -2.515625 -1.546875q-0.6875 0 -2.046875 0.171875q-1.34375 0.15625 -2.03125 0.15625q-4.1875 0 -4.1875 -3.0q0 -0.875 0.6875 -1.703125q0.703125 -0.828125 1.640625 -1.21875q-2.984375 -1.9375 -2.984375 -5.484375q0 -2.796875 2.046875 -4.625q2.0625 -1.828125 5.046875 -1.828125q2.34375 0 3.921875 0.875l1.59375 -1.859375l2.8125 2.5625l-1.9375 1.40625q1.015625 1.53125 1.015625 3.609375q0 2.984375 -1.8125 4.765625q-1.8125 1.78125 -4.578125 1.78125q-0.4375 0 -1.171875 -0.078125l-0.671875 -0.09375q-0.109375 0 -0.875 0.34375q-0.75 0.34375 -0.75 0.71875q0 0.65625 1.125 0.65625q0.5 0 1.6875 -0.234375q1.1875 -0.25 2.03125 -0.25q5.9375 0 5.9375 4.765625q0 2.640625 -2.375 4.140625q-2.375 1.5 -5.71875 1.5q-4.0 0 -7.25 -2.359375zm4.078125 -15.78125q0 1.546875 0.84375 2.484375q0.859375 0.9375 2.3125 0.9375q1.4375 0 2.21875 -0.90625q0.78125 -0.921875 0.78125 -2.515625q0 -1.3125 -0.84375 -2.21875q-0.828125 -0.921875 -2.15625 -0.921875q-1.40625 0 -2.28125 0.890625q-0.875 0.875 -0.875 2.25zm17.151031 -12.875q0.96875 0 1.65625 0.703125q0.703125 0.6875 0.703125 1.65625q0 0.984375 -0.703125 1.671875q-0.6875 0.6875 -1.65625 0.6875q-0.984375 0 -1.671875 -0.6875q-0.6875 -0.6875 -0.6875 -1.671875q0 -0.96875 0.6875 -1.65625q0.6875 -0.703125 1.671875 -0.703125zm-2.109375 24.1875l0 -14.09375l-2.21875 0l0 -3.328125l6.34375 0l0 17.421875l-4.125 0zm20.068115 0l0 -10.078125q0 -2.21875 -0.859375 -3.25q-0.84375 -1.03125 -2.78125 -1.03125q-0.890625 0 -1.921875 0.515625q-1.015625 0.5 -1.578125 1.25l0 12.59375l-4.0625 0l0 -17.421875l2.921875 0l0.75 1.625q1.65625 -1.953125 4.890625 -1.953125q3.109375 0 4.90625 1.859375q1.8125 1.859375 1.8125 5.203125l0 10.6875l-4.078125 0zm24.018433 -7.46875l-12.4375 0q0.109375 2.078125 1.421875 3.234375q1.328125 1.15625 3.546875 1.15625q2.78125 0 4.234375 -1.453125l1.578125 3.109375q-2.140625 1.75 -6.40625 1.75q-3.984375 0 -6.3125 -2.328125q-2.3125 -2.34375 -2.3125 -6.53125q0 -4.109375 2.546875 -6.65625q2.546875 -2.5625 6.109375 -2.5625q3.78125 0 6.078125 2.265625q2.296875 2.25 2.296875 5.75q0 0.75 -0.34375 2.265625zm-12.296875 -3.0625l8.5625 0q-0.421875 -3.828125 -4.234375 -3.828125q-3.484375 0 -4.328125 3.828125z" fill-rule="nonzero"/><path fill="#b6d7a8" d="m488.01584 423.45154l0 0c0 -5.6621094 4.5900574 -10.252167 10.252167 -10.252167l195.77911 0c2.7190552 0 5.326721 1.0801392 7.2493896 3.002777c1.9226685 1.9226685 3.0028076 4.5303345 3.0028076 7.2493896l0 41.007477c0 5.6621094 -4.590088 10.252167 -10.252197 10.252167l-195.77911 0c-5.6621094 0 -10.252167 -4.5900574 -10.252167 -10.252167z" fill-rule="evenodd"/><path stroke="#595959" stroke-width="1.0" stroke-linejoin="round" stroke-linecap="butt" d="m488.01584 423.45154l0 0c0 -5.6621094 4.5900574 -10.252167 10.252167 -10.252167l195.77911 0c2.7190552 0 5.326721 1.0801392 7.2493896 3.002777c1.9226685 1.9226685 3.0028076 4.5303345 3.0028076 7.2493896l0 41.007477c0 5.6621094 -4.590088 10.252167 -10.252197 10.252167l-195.77911 0c-5.6621094 0 -10.252167 -4.5900574 -10.252167 -10.252167z" fill-rule="evenodd"/><path fill="#434343" d="m524.67596 447.18964l0 8.765625l-4.234375 0l0 -23.828125q4.234375 -0.171875 4.953125 -0.171875q5.640625 0 8.25 1.734375q2.625 1.734375 2.625 5.40625q0 8.203125 -9.671875 8.203125q-0.71875 0 -1.921875 -0.109375zm0 -11.390625l0 7.625q1.078125 0.109375 1.6875 0.109375q2.90625 0 4.234375 -0.96875q1.34375 -0.96875 1.34375 -3.140625q0 -3.71875 -5.984375 -3.71875q-0.65625 0 -1.28125 0.09375zm32.93573 -1.75l-1.765625 3.40625q-0.75 -0.671875 -2.3125 -1.328125q-1.5625 -0.65625 -2.6875 -0.65625q-3.515625 0 -5.546875 2.390625q-2.03125 2.375 -2.03125 6.375q0 3.8125 1.984375 6.09375q2.0 2.265625 5.421875 2.265625q2.265625 0 3.734375 -1.234375l0 -4.6875l-3.296875 0l0 -3.609375l7.53125 0l0 10.671875q-1.515625 1.25 -3.90625 1.9375q-2.375 0.6875 -4.734375 0.6875q-5.125 0 -8.140625 -3.359375q-3.0 -3.359375 -3.0 -8.875q0 -5.515625 3.265625 -8.96875q3.28125 -3.453125 8.8125 -3.453125q3.921875 0 6.671875 2.34375zm30.119934 14.4375l-12.4375 0q0.109375 2.078125 1.421875 3.234375q1.328125 1.15625 3.546875 1.15625q2.78125 0 4.234375 -1.453125l1.578125 3.109375q-2.140625 1.75 -6.40625 1.75q-3.984375 0 -6.3125 -2.328125q-2.3125 -2.34375 -2.3125 -6.53125q0 -4.109375 2.546875 -6.65625q2.546875 -2.5625 6.109375 -2.5625q3.78125 0 6.078125 2.265625q2.296875 2.25 2.296875 5.75q0 0.75 -0.34375 2.265625zm-12.296875 -3.0625l8.5625 0q-0.421875 -3.828125 -4.234375 -3.828125q-3.484375 0 -4.328125 3.828125zm27.107056 10.53125l0 -10.078125q0 -2.21875 -0.859375 -3.25q-0.84375 -1.03125 -2.78125 -1.03125q-0.890625 0 -1.921875 0.515625q-1.015625 0.5 -1.578125 1.25l0 12.59375l-4.0625 0l0 -17.421875l2.921875 0l0.75 1.625q1.65625 -1.953125 4.890625 -1.953125q3.109375 0 4.90625 1.859375q1.8125 1.859375 1.8125 5.203125l0 10.6875l-4.078125 0zm7.1590576 4.46875l2.578125 -3.171875q2.125 1.953125 4.75 1.953125q1.75 0 2.890625 -0.515625q1.140625 -0.515625 1.140625 -1.4375q0 -1.546875 -2.515625 -1.546875q-0.6875 0 -2.046875 0.171875q-1.34375 0.15625 -2.03125 0.15625q-4.1875 0 -4.1875 -3.0q0 -0.875 0.6875 -1.703125q0.703125 -0.828125 1.640625 -1.21875q-2.984375 -1.9375 -2.984375 -5.484375q0 -2.796875 2.046875 -4.625q2.0625 -1.828125 5.046875 -1.828125q2.34375 0 3.921875 0.875l1.59375 -1.859375l2.8125 2.5625l-1.9375 1.40625q1.015625 1.53125 1.015625 3.609375q0 2.984375 -1.8125 4.765625q-1.8125 1.78125 -4.578125 1.78125q-0.4375 0 -1.171875 -0.078125l-0.671875 -0.09375q-0.109375 0 -0.875 0.34375q-0.75 0.34375 -0.75 0.71875q0 0.65625 1.125 0.65625q0.5 0 1.6875 -0.234375q1.1875 -0.25 2.03125 -0.25q5.9375 0 5.9375 4.765625q0 2.640625 -2.375 4.140625q-2.375 1.5 -5.71875 1.5q-4.0 0 -7.25 -2.359375zm4.078125 -15.78125q0 1.546875 0.84375 2.484375q0.859375 0.9375 2.3125 0.9375q1.4375 0 2.21875 -0.90625q0.78125 -0.921875 0.78125 -2.515625q0 -1.3125 -0.84375 -2.21875q-0.828125 -0.921875 -2.15625 -0.921875q-1.40625 0 -2.28125 0.890625q-0.875 0.875 -0.875 2.25zm17.151001 -12.875q0.96875 0 1.65625 0.703125q0.703125 0.6875 0.703125 1.65625q0 0.984375 -0.703125 1.671875q-0.6875 0.6875 -1.65625 0.6875q-0.984375 0 -1.671875 -0.6875q-0.6875 -0.6875 -0.6875 -1.671875q0 -0.96875 0.6875 -1.65625q0.6875 -0.703125 1.671875 -0.703125zm-2.109375 24.1875l0 -14.09375l-2.21875 0l0 -3.328125l6.34375 0l0 17.421875l-4.125 0zm20.068115 0l0 -10.078125q0 -2.21875 -0.859375 -3.25q-0.84375 -1.03125 -2.78125 -1.03125q-0.890625 0 -1.921875 0.515625q-1.015625 0.5 -1.578125 1.25l0 12.59375l-4.0625 0l0 -17.421875l2.921875 0l0.75 1.625q1.65625 -1.953125 4.890625 -1.953125q3.109375 0 4.90625 1.859375q1.8125 1.859375 1.8125 5.203125l0 10.6875l-4.078125 0zm24.018433 -7.46875l-12.4375 0q0.109375 2.078125 1.421875 3.234375q1.328125 1.15625 3.546875 1.15625q2.78125 0 4.234375 -1.453125l1.578125 3.109375q-2.140625 1.75 -6.40625 1.75q-3.984375 0 -6.3125 -2.328125q-2.3125 -2.34375 -2.3125 -6.53125q0 -4.109375 2.546875 -6.65625q2.546875 -2.5625 6.109375 -2.5625q3.78125 0 6.078125 2.265625q2.296875 2.25 2.296875 5.75q0 0.75 -0.34375 2.265625zm-12.296875 -3.0625l8.5625 0q-0.421875 -3.828125 -4.234375 -3.828125q-3.484375 0 -4.328125 3.828125z" fill-rule="nonzero"/><path fill="#000000" fill-opacity="0.0" d="m333.60382 68.74447l216.28345 0l0 61.511818l-216.28345 0z" fill-rule="evenodd"/><path fill="#434343" d="m359.36945 125.588844l-3.453125 0l-13.1875 -35.765625l6.890625 0l8.15625 23.84375l8.625 -23.84375l6.75 0l-13.78125 35.765625zm21.864594 -36.28125q1.453125 0 2.46875 1.03125q1.03125 1.015625 1.03125 2.46875q0 1.4375 -1.03125 2.46875q-1.015625 1.015625 -2.46875 1.015625q-1.4375 0 -2.46875 -1.015625q-1.015625 -1.03125 -1.015625 -2.46875q0 -1.453125 1.015625 -2.46875q1.03125 -1.03125 2.46875 -1.03125zm-3.109375 35.796875l0 -20.859375l-3.296875 0l0 -4.9375l9.390625 0l0 25.796875l-6.09375 0zm29.700928 0l0 -1.5625q-0.75 0.8125 -2.53125 1.4375q-1.78125 0.609375 -3.6875 0.609375q-5.390625 0 -8.484375 -3.421875q-3.09375 -3.421875 -3.09375 -9.53125q0 -6.125 3.546875 -9.96875q3.5625 -3.84375 8.90625 -3.84375q2.9375 0 5.34375 1.203125l0 -10.328125l6.03125 -1.453125l0 36.859375l-6.03125 0zm0 -19.625q-1.921875 -1.546875 -4.015625 -1.546875q-3.609375 0 -5.5625 2.203125q-1.953125 2.203125 -1.953125 6.328125q0 8.046875 7.75 8.046875q0.875 0 2.140625 -0.515625q1.265625 -0.53125 1.640625 -1.0625l0 -13.453125zm26.4039 17.046875q-0.828125 1.34375 -2.859375 2.203125q-2.03125 0.859375 -4.25 0.859375q-4.171875 0 -6.5625 -2.078125q-2.375 -2.09375 -2.375 -5.921875q0 -4.484375 3.359375 -7.0q3.359375 -2.53125 9.546875 -2.53125q1.0625 0 2.515625 0.359375q0 -4.5625 -5.765625 -4.5625q-3.390625 0 -5.671875 1.140625l-1.3125 -4.671875q3.109375 -1.5 7.40625 -1.5q5.890625 0 8.640625 2.6875q2.75 2.6875 2.75 10.171875l0 5.515625q0 5.15625 2.0625 6.484375q-0.75 1.296875 -1.671875 1.59375q-0.90625 0.3125 -2.078125 0.3125q-1.296875 0 -2.34375 -0.953125q-1.03125 -0.96875 -1.390625 -2.109375zm-0.578125 -9.5625q-1.546875 -0.3125 -2.3125 -0.3125q-7.125 0 -7.125 4.671875q0 3.46875 4.015625 3.46875q5.421875 0 5.421875 -5.421875l0 -2.40625zm27.402832 -8.046875q-1.609375 -1.0625 -3.53125 -1.0625q-2.09375 0 -3.734375 1.90625q-1.625 1.90625 -1.625 4.65625l0 14.6875l-6.015625 0l0 -25.796875l6.015625 0l0 2.359375q2.53125 -2.84375 6.734375 -2.84375q3.078125 0 4.71875 0.9375l-2.5625 5.15625zm14.356506 20.1875l-7.828125 0l0 -35.265625q7.5 -0.265625 9.421875 -0.265625q7.703125 0 12.21875 4.515625q4.515625 4.515625 4.515625 11.984375q0 19.03125 -18.328125 19.03125zm-1.5625 -29.796875l0 24.09375q1.515625 0.140625 3.28125 0.140625q4.734375 0 7.421875 -3.4375q2.6875 -3.453125 2.6875 -9.640625q0 -11.328125 -10.53125 -11.328125q-1.0 0 -2.859375 0.171875zm36.228424 29.796875l-10.796875 0l0 -35.265625q7.140625 -0.328125 10.0 -0.328125q5.4843445 0 8.5780945 2.34375q3.109375 2.34375 3.109375 6.703125q0 4.1875 -4.4375 6.625q6.578125 2.296875 6.578125 9.4375q0 4.828125 -3.640625 7.65625q-3.640625 2.828125 -9.3905945 2.828125zm-4.53125 -30.25l0 8.453125q1.453125 0.09375 3.03125 0.09375q6.1249695 0 6.1249695 -4.59375q0 -4.078125 -5.5624695 -4.078125q-1.46875 0 -3.59375 0.125zm0 13.34375l0 11.65625q1.90625 0.171875 3.078125 0.171875q4.2030945 0 6.0937195 -1.421875q1.890625 -1.421875 1.890625 -4.71875q0 -3.015625 -1.765625 -4.390625q-1.75 -1.375 -6.1405945 -1.375q-0.921875 0 -3.15625 0.078125z" fill-rule="nonzero"/></g></svg>